<svg width="100" height="100" viewBox="0 0 100 100" fill="none" xmlns="http://www.w3.org/2000/svg">
<g id="arrows 10">
<g clip-path="url(#clip0_144_481)">
<rect width="100" height="100" rx="50" fill="white"/>
<g id="Group">
<path id="Vector" d="M99.544 48.9982L69.6461 23.0007C69.2836 22.6857 68.7793 22.5906 68.3275 22.7528C67.8754 22.9145 67.5461 23.308 67.4662 23.7813L65.3088 36.5471H9.78882C9.14096 36.5471 8.58772 37.0149 8.47983 37.6534L7.74265 42.0144C7.67748 42.3998 7.78538 42.794 8.03786 43.0926C8.2901 43.3912 8.66086 43.5633 9.05165 43.5633H34.1507L33.6177 47.184H1.96333C1.31547 47.184 0.762227 47.6517 0.654331 48.2902L0.01854 52.0518C-0.0466322 52.4373 0.061264 52.8312 0.313746 53.1301C0.565987 53.4284 0.936744 53.6005 1.32754 53.6005H39.754L39.2216 57.2212H15.3287C14.6808 57.2212 14.1276 57.689 14.0197 58.3274L13.4151 61.9039C13.3496 62.2894 13.4578 62.6834 13.71 62.9822C13.9625 63.2808 14.3333 63.4529 14.724 63.4529H60.76L58.6774 75.776C58.5891 76.2993 58.8205 76.825 59.2661 77.1127C59.4853 77.2542 59.7356 77.3249 59.9859 77.3249C60.2442 77.3249 60.5027 77.2496 60.7262 77.0992L99.4124 51.1018C99.7554 50.8713 99.9715 50.494 99.9971 50.0819C100.024 49.6699 99.8556 49.2692 99.544 48.9982Z" fill="#B278FB"/>
</g>
</g>
</g>
<defs>
<clipPath id="clip0_144_481">
<rect width="100" height="100" rx="50" fill="white"/>
</clipPath>
</defs>
</svg>
